# xmcd
#
# Track frame offsets:
#	207
#	14325
#	27692
#	41477
#	54815
#	66507
#	80735
#	93192
#	106255
#	117385
#	131942
#	146702
#	159010
#	172295
#	186102
#	199767
#	214287
#	226055
#
# Disc length: 3195 seconds
# Revision: 3
# Processed by: cddbd v1.5.2PL0 Copyright (c) Steve Scherf et al.
# Submitted via: dBpowerAMP V12.0
#
DISCID=030c7912
DTITLE=John Lee Hooker - Half A Stranger
DYEAR=1954
DGENRE=Blues
TTITLE0=Bad Boy
TTITLE1=Rock House Boogie
TTITLE2=The Syndicator
TTITLE3=I Love Ya Baby
TTITLE4=Baby, I'm Gonna Miss You
TTITLE5=Half A Stranger
TTITLE6=Shake, Holler And Run
TTITLE7=Down Child
TTITLE8=Gonna Boogie
TTITLE9=Baby You Ain't No Good
TTITLE10=Lookin For A Woman
TTITLE11=Hug And Squeeze
TTITLE12=I'm In The Mood
TTITLE13=House Rent Boogie
TTITLE14=Crawling King Snake
TTITLE15=Boogie Chillen
TTITLE16=Queen Bee
TTITLE17=Hobo Blues
EXTD=
EXTT0=
EXTT1=
EXTT2=
EXTT3=
EXTT4=
EXTT5=
EXTT6=
EXTT7=
EXTT8=
EXTT9=
EXTT10=
EXTT11=
EXTT12=
EXTT13=
EXTT14=
EXTT15=
EXTT16=
EXTT17=
PLAYORDER=
